{
  "accessors": [
    {
      "bufferView": 2,
      "componentType": 5126,
      "count": 126,
      "max": [
        0.30219799280166626,
        9.784683227539063,
        1.873641014099121
      ],
      "min": [
        -0.30219799280166626,
        8.216468811035156,
        -2.4318439960479736
      ],
      "type": "VEC3"
    },
    {
      "bufferView": 2,
      "byteOffset": 1512,
      "componentType": 5126,
      "count": 126,
      "max": [
        0.9999447464942932,
        0.999449610710144,
        0.9860072135925293
      ],
      "min": [
        -0.9999447464942932,
        -0.9991092681884766,
        -0.9855544567108154
      ],
      "type": "VEC3"
    },
    {
      "bufferView": 3,
      "componentType": 5126,
      "count": 126,
      "max": [
        0.9994863867759705,
        0.3407382369041443,
        0.999590277671814,
        1.0
      ],
      "min": [
        -0.9999999403953552,
        -0.6851250529289246,
        -0.9741150736808777,
        1.0
      ],
      "type": "VEC4"
    },
    {
      "bufferView": 1,
      "componentType": 5126,
      "count": 126,
      "max": [
        0.7683449983596802,
        0.09480900317430496
      ],
      "min": [
        0.09442500025033951,
        2.9000000722589903e-05
      ],
      "type": "VEC2"
    },
    {
      "bufferView": 0,
      "componentType": 5125,
      "count": 576,
      "type": "SCALAR"
    },
    {
      "bufferView": 2,
      "byteOffset": 3024,
      "componentType": 5126,
      "count": 1879,
      "max": [
        0.8091260194778442,
        9.598941802978516,
        3.4744529724121094
      ],
      "min": [
        -1.877426028251648,
        0.48782798647880554,
        -3.515958070755005
      ],
      "type": "VEC3"
    },
    {
      "bufferView": 2,
      "byteOffset": 25572,
      "componentType": 5126,
      "count": 1879,
      "max": [
        1.0,
        1.0,
        1.0
      ],
      "min": [
        -1.0,
        -1.0,
        -1.0
      ],
      "type": "VEC3"
    },
    {
      "bufferView": 3,
      "byteOffset": 2016,
      "componentType": 5126,
      "count": 1879,
      "max": [
        1.0,
        0.9997072815895081,
        1.0,
        1.0
      ],
      "min": [
        -1.0,
        -0.9999281764030457,
        -0.9999999403953552,
        -1.0
      ],
      "type": "VEC4"
    },
    {
      "bufferView": 1,
      "byteOffset": 1008,
      "componentType": 5126,
      "count": 1879,
      "max": [
        1.0,
        0.9673709869384766
      ],
      "min": [
        0.0,
        2.2000000171829015e-05
      ],
      "type": "VEC2"
    },
    {
      "bufferView": 0,
      "byteOffset": 2304,
      "componentType": 5125,
      "count": 6732,
      "type": "SCALAR"
    },
    {
      "bufferView": 2,
      "byteOffset": 48120,
      "componentType": 5126,
      "count": 56,
      "max": [
        0.15282699465751648,
        0.5,
        0.5000010132789612
      ],
      "min": [
        -0.3109000027179718,
        -0.5000060200691223,
        -0.5000020265579224
      ],
      "type": "VEC3"
    },
    {
      "bufferView": 2,
      "byteOffset": 48792,
      "componentType": 5126,
      "count": 56,
      "max": [
        1.0,
        1.0,
        1.0
      ],
      "min": [
        -0.9428848624229431,
        -1.0,
        -1.0
      ],
      "type": "VEC3"
    },
    {
      "bufferView": 3,
      "byteOffset": 32080,
      "componentType": 5126,
      "count": 56,
      "max": [
        0.8140438199043274,
        0.9672774076461792,
        0.999721109867096,
        1.0
      ],
      "min": [
        -0.9183850288391113,
        -0.9694857001304626,
        -0.8612706661224365,
        1.0
      ],
      "type": "VEC4"
    },
    {
      "bufferView": 1,
      "byteOffset": 16040,
      "componentType": 5126,
      "count": 56,
      "max": [
        0.9756180047988892,
        0.04267700016498566
      ],
      "min": [
        0.0,
        0.0
      ],
      "type": "VEC2"
    },
    {
      "bufferView": 0,
      "byteOffset": 29232,
      "componentType": 5125,
      "count": 84,
      "type": "SCALAR"
    },
    {
      "bufferView": 2,
      "byteOffset": 49464,
      "componentType": 5126,
      "count": 82,
      "max": [
        1.0000009536743164,
        1.0,
        1.0000020265579224
      ],
      "min": [
        -1.0,
        -1.0000020265579224,
        -1.0000009536743164
      ],
      "type": "VEC3"
    },
    {
      "bufferView": 2,
      "byteOffset": 50448,
      "componentType": 5126,
      "count": 82,
      "max": [
        1.0,
        1.0,
        1.0
      ],
      "min": [
        -1.0,
        -1.0,
        -1.0
      ],
      "type": "VEC3"
    },
    {
      "bufferView": 3,
      "byteOffset": 32976,
      "componentType": 5126,
      "count": 82,
      "max": [
        0.9585406184196472,
        3.609561929351912e-07,
        0.9521942138671875,
        1.0
      ],
      "min": [
        -0.9521942138671875,
        -0.3054995536804199,
        -0.9521979093551636,
        1.0
      ],
      "type": "VEC4"
    },
    {
      "bufferView": 1,
      "byteOffset": 16488,
      "componentType": 5126,
      "count": 82,
      "max": [
        0.9967510104179382,
        0.11535400152206421
      ],
      "min": [
        0.2683660089969635,
        9.999999747378752e-06
      ],
      "type": "VEC2"
    },
    {
      "bufferView": 0,
      "byteOffset": 29568,
      "componentType": 5125,
      "count": 228,
      "type": "SCALAR"
    },
    {
      "bufferView": 2,
      "byteOffset": 51432,
      "componentType": 5126,
      "count": 126,
      "max": [
        0.30219799280166626,
        9.784683227539063,
        1.873641014099121
      ],
      "min": [
        -0.30219799280166626,
        8.216468811035156,
        -2.4318439960479736
      ],
      "type": "VEC3"
    },
    {
      "bufferView": 2,
      "byteOffset": 52944,
      "componentType": 5126,
      "count": 126,
      "max": [
        0.9999447464942932,
        0.999449610710144,
        0.9860072135925293
      ],
      "min": [
        -0.9999447464942932,
        -0.9991092681884766,
        -0.9855544567108154
      ],
      "type": "VEC3"
    },
    {
      "bufferView": 3,
      "byteOffset": 34288,
      "componentType": 5126,
      "count": 126,
      "max": [
        0.9994853734970093,
        0.34073805809020996,
        0.9995922446250916,
        1.0
      ],
      "min": [
        -0.9999999403953552,
        -0.6850569844245911,
        -0.9741074442863464,
        1.0
      ],
      "type": "VEC4"
    },
    {
      "bufferView": 1,
      "byteOffset": 17144,
      "componentType": 5126,
      "count": 126,
      "max": [
        0.6739199757575989,
        0.09395100176334381
      ],
      "min": [
        0.28824499249458313,
        2.8000000384054147e-05
      ],
      "type": "VEC2"
    },
    {
      "bufferView": 0,
      "byteOffset": 30480,
      "componentType": 5125,
      "count": 576,
      "type": "SCALAR"
    },
    {
      "bufferView": 2,
      "byteOffset": 54456,
      "componentType": 5126,
      "count": 24,
      "max": [
        0.5000010132789612,
        0.5320280194282532,
        0.5187299847602844
      ],
      "min": [
        -0.29832398891448975,
        -0.30219700932502747,
        -0.3279849886894226
      ],
      "type": "VEC3"
    },
    {
      "bufferView": 2,
      "byteOffset": 54744,
      "componentType": 5126,
      "count": 24,
      "max": [
        0.995049774646759,
        0.9242519736289978,
        0.9999690055847168
      ],
      "min": [
        -0.9950498938560486,
        -0.9996971487998962,
        -0.9999537467956543
      ],
      "type": "VEC3"
    },
    {
      "bufferView": 3,
      "byteOffset": 36304,
      "componentType": 5126,
      "count": 24,
      "max": [
        0.9992579817771912,
        0.9899982213973999,
        0.5642644166946411,
        1.0
      ],
      "min": [
        -0.8254809975624084,
        -0.014705656096339226,
        -0.1622524857521057,
        1.0
      ],
      "type": "VEC4"
    },
    {
      "bufferView": 1,
      "byteOffset": 18152,
      "componentType": 5126,
      "count": 24,
      "max": [
        0.9990720152854919,
        0.07361999899148941
      ],
      "min": [
        0.0,
        1.2000000424450263e-05
      ],
      "type": "VEC2"
    },
    {
      "bufferView": 0,
      "byteOffset": 32784,
      "componentType": 5125,
      "count": 36,
      "type": "SCALAR"
    },
    {
      "bufferView": 2,
      "byteOffset": 55032,
      "componentType": 5126,
      "count": 62,
      "max": [
        1.0000040531158447,
        1.0000020265579224,
        0.9999960064888
      ],
      "min": [
        -0.9999729990959167,
        0.21176399290561676,
        -1.0000040531158447
      ],
      "type": "VEC3"
    },
    {
      "bufferView": 2,
      "byteOffset": 55776,
      "componentType": 5126,
      "count": 62,
      "max": [
        1.0,
        1.0,
        1.0
      ],
      "min": [
        -1.0,
        -1.800000791263301e-05,
        -1.0
      ],
      "type": "VEC3"
    },
    {
      "bufferView": 3,
      "byteOffset": 36688,
      "componentType": 5126,
      "count": 62,
      "max": [
        0.9838007092475891,
        3.2133979743775853e-07,
        0.9837986826896667,
        1.0
      ],
      "min": [
        -0.9837959408760071,
        -0.17962051928043365,
        -0.9837985634803772,
        1.0
      ],
      "type": "VEC4"
    },
    {
      "bufferView": 1,
      "byteOffset": 18344,
      "componentType": 5126,
      "count": 62,
      "max": [
        0.8255289793014526,
        0.011591999791562557
      ],
      "min": [
        0.019879000261425972,
        2.099999983329326e-05
      ],
      "type": "VEC2"
    },
    {
      "bufferView": 0,
      "byteOffset": 32928,
      "componentType": 5125,
      "count": 174,
      "type": "SCALAR"
    },
    {
      "bufferView": 2,
      "byteOffset": 56520,
      "componentType": 5126,
      "count": 82,
      "max": [
        1.0,
        0.9999920129776001,
        1.0
      ],
      "min": [
        -1.0000020265579224,
        -1.3757250308990479,
        -1.1700910329818726
      ],
      "type": "VEC3"
    },
    {
      "bufferView": 2,
      "byteOffset": 57504,
      "componentType": 5126,
      "count": 82,
      "max": [
        1.0,
        0.9999930262565613,
        1.0
      ],
      "min": [
        -1.0,
        -0.9950630068778992,
        -0.9998928904533386
      ],
      "type": "VEC3"
    },
    {
      "bufferView": 3,
      "byteOffset": 37680,
      "componentType": 5126,
      "count": 82,
      "max": [
        0.999052107334137,
        0.4248621165752411,
        0.998843789100647,
        1.0
      ],
      "min": [
        -0.9052819609642029,
        -0.5019344091415405,
        -0.9988635182380676,
        1.0
      ],
      "type": "VEC4"
    },
    {
      "bufferView": 1,
      "byteOffset": 18840,
      "componentType": 5126,
      "count": 82,
      "max": [
        0.8689910173416138,
        0.11882299929857254
      ],
      "min": [
        0.7454620003700256,
        0.05619899928569794
      ],
      "type": "VEC2"
    },
    {
      "bufferView": 0,
      "byteOffset": 33624,
      "componentType": 5125,
      "count": 228,
      "type": "SCALAR"
    },
    {
      "bufferView": 2,
      "byteOffset": 58488,
      "componentType": 5126,
      "count": 136,
      "max": [
        0.4999989867210388,
        0.5,
        0.5
      ],
      "min": [
        0.16666600108146667,
        -0.5,
        -0.5
      ],
      "type": "VEC3"
    },
    {
      "bufferView": 2,
      "byteOffset": 60120,
      "componentType": 5126,
      "count": 136,
      "max": [
        1.0,
        1.0,
        1.0
      ],
      "min": [
        0.0,
        -1.0,
        -1.0
      ],
      "type": "VEC3"
    },
    {
      "bufferView": 3,
      "byteOffset": 38992,
      "componentType": 5126,
      "count": 136,
      "max": [
        0.903469979763031,
        0.9998902678489685,
        0.9999316334724426,
        1.0
      ],
      "min": [
        -0.903469979763031,
        -0.9998903274536133,
        -0.9999316334724426,
        1.0
      ],
      "type": "VEC4"
    },
    {
      "bufferView": 1,
      "byteOffset": 19496,
      "componentType": 5126,
      "count": 136,
      "max": [
        0.8431980013847351,
        0.12347400188446045
      ],
      "min": [
        0.48206499218940735,
        3.199999991920777e-05
      ],
      "type": "VEC2"
    },
    {
      "bufferView": 0,
      "byteOffset": 34536,
      "componentType": 5125,
      "count": 318,
      "type": "SCALAR"
    }
  ],
  "asset": {
    "extras": {
      "author": "willgt (https://sketchfab.com/willgt)",
      "license": "CC-BY-4.0 (http://creativecommons.org/licenses/by/4.0/)",
      "source": "https://sketchfab.com/3d-models/jerry-can-abf013f1ec304f93a6c468140088bc75",
      "title": "Jerry Can"
    },
    "generator": "Sketchfab-16.29.0",
    "version": "2.0"
  },
  "bufferViews": [
    {
      "buffer": 0,
      "byteLength": 35808,
      "name": "floatBufferViews",
      "target": 34963
    },
    {
      "buffer": 0,
      "byteLength": 20584,
      "byteOffset": 35808,
      "byteStride": 8,
      "name": "floatBufferViews",
      "target": 34962
    },
    {
      "buffer": 0,
      "byteLength": 61752,
      "byteOffset": 56392,
      "byteStride": 12,
      "name": "floatBufferViews",
      "target": 34962
    },
    {
      "buffer": 0,
      "byteLength": 41168,
      "byteOffset": 118144,
      "byteStride": 16,
      "name": "floatBufferViews",
      "target": 34962
    }
  ],
  "buffers": [
    {
      "byteLength": 159312,
      "uri": "scene.bin"
    }
  ],
  "images": [
    {
      "uri": "textures/lambert1_baseColor.jpeg"
    },
    {
      "uri": "textures/lambert1_metallicRoughness.png"
    },
    {
      "uri": "textures/lambert1_normal.png"
    }
  ],
  "materials": [
    {
      "doubleSided": true,
      "name": "lambert1",
      "normalTexture": {
        "index": 2
      },
      "occlusionTexture": {
        "index": 1
      },
      "pbrMetallicRoughness": {
        "baseColorTexture": {
          "index": 0
        },
        "metallicRoughnessTexture": {
          "index": 1
        }
      }
    }
  ],
  "meshes": [
    {
      "name": "defaultMaterial",
      "primitives": [
        {
          "attributes": {
            "NORMAL": 1,
            "POSITION": 0,
            "TANGENT": 2,
            "TEXCOORD_0": 3
          },
          "indices": 4,
          "material": 0,
          "mode": 4
        }
      ]
    },
    {
      "name": "defaultMaterial",
      "primitives": [
        {
          "attributes": {
            "NORMAL": 6,
            "POSITION": 5,
            "TANGENT": 7,
            "TEXCOORD_0": 8
          },
          "indices": 9,
          "material": 0,
          "mode": 4
        }
      ]
    },
    {
      "name": "defaultMaterial",
      "primitives": [
        {
          "attributes": {
            "NORMAL": 11,
            "POSITION": 10,
            "TANGENT": 12,
            "TEXCOORD_0": 13
          },
          "indices": 14,
          "material": 0,
          "mode": 4
        }
      ]
    },
    {
      "name": "defaultMaterial",
      "primitives": [
        {
          "attributes": {
            "NORMAL": 16,
            "POSITION": 15,
            "TANGENT": 17,
            "TEXCOORD_0": 18
          },
          "indices": 19,
          "material": 0,
          "mode": 4
        }
      ]
    },
    {
      "name": "defaultMaterial",
      "primitives": [
        {
          "attributes": {
            "NORMAL": 21,
            "POSITION": 20,
            "TANGENT": 22,
            "TEXCOORD_0": 23
          },
          "indices": 24,
          "material": 0,
          "mode": 4
        }
      ]
    },
    {
      "name": "defaultMaterial",
      "primitives": [
        {
          "attributes": {
            "NORMAL": 26,
            "POSITION": 25,
            "TANGENT": 27,
            "TEXCOORD_0": 28
          },
          "indices": 29,
          "material": 0,
          "mode": 4
        }
      ]
    },
    {
      "name": "defaultMaterial",
      "primitives": [
        {
          "attributes": {
            "NORMAL": 31,
            "POSITION": 30,
            "TANGENT": 32,
            "TEXCOORD_0": 33
          },
          "indices": 34,
          "material": 0,
          "mode": 4
        }
      ]
    },
    {
      "name": "defaultMaterial",
      "primitives": [
        {
          "attributes": {
            "NORMAL": 36,
            "POSITION": 35,
            "TANGENT": 37,
            "TEXCOORD_0": 38
          },
          "indices": 39,
          "material": 0,
          "mode": 4
        }
      ]
    },
    {
      "name": "defaultMaterial",
      "primitives": [
        {
          "attributes": {
            "NORMAL": 41,
            "POSITION": 40,
            "TANGENT": 42,
            "TEXCOORD_0": 43
          },
          "indices": 44,
          "material": 0,
          "mode": 4
        }
      ]
    }
  ],
  "nodes": [
    {
      "children": [
        1
      ],
      "matrix": [
        1.0,
        0.0,
        0.0,
        0.0,
        0.0,
        2.220446049250313e-16,
        -1.0,
        0.0,
        0.0,
        1.0,
        2.220446049250313e-16,
        0.0,
        0.0,
        0.0,
        0.0,
        1.0
      ],
      "name": "Sketchfab_model"
    },
    {
      "children": [
        2,
        4,
        6,
        8,
        10,
        12,
        14,
        16,
        18
      ],
      "matrix": [
        1.0,
        0.0,
        0.0,
        0.0,
        0.0,
        -4.371139006309477e-08,
        0.999999999999999,
        0.0,
        0.0,
        -0.999999999999999,
        -4.371139006309477e-08,
        0.0,
        0.0,
        0.0,
        0.0,
        1.0
      ],
      "name": "Collada visual scene group"
    },
    {
      "children": [
        3
      ],
      "matrix": [
        -1.0,
        0.0,
        0.0,
        0.0,
        0.0,
        0.859847,
        0.510551,
        0.0,
        0.0,
        0.510551,
        -0.859847,
        0.0,
        -1.273062,
        1.008814,
        -5.638644,
        1.0
      ],
      "name": "sweep7"
    },
    {
      "mesh": 0,
      "name": "defaultMaterial"
    },
    {
      "children": [
        5
      ],
      "name": "polySurface1"
    },
    {
      "mesh": 1,
      "name": "defaultMaterial"
    },
    {
      "children": [
        7
      ],
      "matrix": [
        0.611846,
        0.0,
        0.0,
        0.0,
        0.0,
        0.262379,
        0.143514,
        0.0,
        0.0,
        -0.105703,
        0.193251,
        0.0,
        0.554176,
        8.279126,
        2.37055,
        1.0
      ],
      "name": "pCube23"
    },
    {
      "mesh": 2,
      "name": "defaultMaterial"
    },
    {
      "children": [
        9
      ],
      "matrix": [
        0.281364,
        0.0,
        0.0,
        0.0,
        0.0,
        0.255838,
        0.117102,
        0.0,
        0.0,
        -0.117102,
        0.255838,
        0.0,
        0.199617,
        8.26485,
        2.408875,
        1.0
      ],
      "name": "pCylinder14"
    },
    {
      "mesh": 3,
      "name": "defaultMaterial"
    },
    {
      "children": [
        11
      ],
      "matrix": [
        -1.0,
        0.0,
        0.0,
        0.0,
        0.0,
        0.859847,
        0.510551,
        0.0,
        0.0,
        0.510551,
        -0.859847,
        0.0,
        0.299837,
        1.008814,
        -5.638644,
        1.0
      ],
      "name": "sweep6"
    },
    {
      "mesh": 4,
      "name": "defaultMaterial"
    },
    {
      "children": [
        13
      ],
      "matrix": [
        0.448235,
        0.0,
        0.0,
        0.0,
        0.0,
        0.185663,
        0.081647,
        0.0,
        0.0,
        -0.226666,
        0.515431,
        0.0,
        0.288686,
        8.332881,
        2.257362,
        1.0
      ],
      "name": "pCube22"
    },
    {
      "mesh": 5,
      "name": "defaultMaterial"
    },
    {
      "children": [
        15
      ],
      "matrix": [
        -0.001293,
        -0.047572,
        0.0,
        0.0,
        0.138845,
        -0.003775,
        0.0,
        0.0,
        0.0,
        0.0,
        0.047589,
        0.0,
        0.539188,
        8.265101,
        2.373736,
        1.0
      ],
      "name": "pCylinder13"
    },
    {
      "mesh": 6,
      "name": "defaultMaterial"
    },
    {
      "children": [
        17
      ],
      "matrix": [
        0.369765,
        0.0,
        0.0,
        0.0,
        0.0,
        0.043717,
        0.019459,
        0.0,
        0.0,
        -0.165414,
        0.371623,
        0.0,
        0.223345,
        8.523068,
        2.502131,
        1.0
      ],
      "name": "pCylinder12"
    },
    {
      "mesh": 7,
      "name": "defaultMaterial"
    },
    {
      "children": [
        19
      ],
      "matrix": [
        0.996265,
        0.0,
        0.0,
        0.0,
        0.0,
        2.393628,
        0.0,
        0.0,
        0.0,
        0.0,
        1.887724,
        0.0,
        0.301777,
        4.255818,
        -0.035503,
        1.0
      ],
      "name": "pCube20"
    },
    {
      "mesh": 8,
      "name": "defaultMaterial"
    }
  ],
  "samplers": [
    {
      "magFilter": 9729,
      "minFilter": 9987,
      "wrapS": 10497,
      "wrapT": 10497
    }
  ],
  "scene": 0,
  "scenes": [
    {
      "name": "Sketchfab_Scene",
      "nodes": [
        0
      ]
    }
  ],
  "textures": [
    {
      "sampler": 0,
      "source": 0
    },
    {
      "sampler": 0,
      "source": 1
    },
    {
      "sampler": 0,
      "source": 2
    }
  ]
}
